<svg xmlns="http://www.w3.org/2000/svg" viewBox="0 0 200 200" width="200" height="200">
  <!-- Lime juice -->
  <circle cx="100" cy="100" r="90" fill="#F5DEB3"/>
  <circle cx="100" cy="100" r="85" fill="#FFF8DC"/>
  
  <!-- Glass -->
  <path d="M 70,145 L 75,60 Q 75,55 80,55 L 120,55 Q 125,55 125,60 L 130,145 Q 130,150 125,150 L 75,150 Q 70,150 70,145" fill="#E0F7FA" opacity="0.8"/>
  <path d="M 70,145 L 75,60 Q 75,55 80,55 L 120,55 Q 125,55 125,60 L 130,145 Q 130,150 125,150 L 75,150 Q 70,150 70,145" fill="none" stroke="#00BCD4" stroke-width="2"/>
  
  <!-- Lime juice -->
  <path d="M 71,140 L 76,75 L 124,75 L 129,140 Q 129,145 124,145 L 76,145 Q 71,145 71,140" fill="#90EE90" opacity="0.7"/>
  
  <!-- Lime slices -->
  <circle cx="90" cy="90" r="10" fill="#32CD32" opacity="0.8"/>
  <circle cx="90" cy="90" r="8" fill="#ADFF2F" opacity="0.6"/>
  <line x1="90" y1="82" x2="90" y2="98" stroke="white" stroke-width="1"/>
  <line x1="82" y1="90" x2="98" y2="90" stroke="white" stroke-width="1"/>
  
  <circle cx="110" cy="100" r="10" fill="#32CD32" opacity="0.8"/>
  <circle cx="110" cy="100" r="8" fill="#ADFF2F" opacity="0.6"/>
  <line x1="110" y1="92" x2="110" y2="108" stroke="white" stroke-width="1"/>
  <line x1="102" y1="100" x2="118" y2="100" stroke="white" stroke-width="1"/>
  
  <!-- Ice cubes -->
  <rect x="85" y="110" width="10" height="10" fill="white" opacity="0.6"/>
  <rect x="105" y="115" width="10" height="10" fill="white" opacity="0.6"/>
  
  <!-- Straw -->
  <rect x="108" y="45" width="4" height="60" fill="#FF6347" opacity="0.8"/>
  <rect x="106" y="42" width="8" height="6" rx="3" fill="#FF6347"/>
  
  <text x="100" y="180" font-size="16" fill="#A11C23" text-anchor="middle" font-weight="bold">น้ำมะนาว</text>
</svg>
