<svg xmlns="http://www.w3.org/2000/svg" viewBox="0 0 200 200" width="200" height="200">
  <!-- Noodle Soup -->
  <circle cx="100" cy="100" r="90" fill="#F5DEB3"/>
  <circle cx="100" cy="100" r="85" fill="#FFF8DC"/>
  
  <!-- Bowl -->
  <ellipse cx="100" cy="125" rx="65" ry="20" fill="#FFE4C4"/>
  <path d="M 35,125 Q 35,85 100,80 T 165,125" fill="#FDB462" opacity="0.7"/>
  
  <!-- Soup surface -->
  <ellipse cx="100" cy="80" rx="65" ry="15" fill="#FFB347"/>
  
  <!-- Noodles -->
  <path d="M 60,85 Q 80,75 100,85 T 140,85" stroke="#FAFAD2" stroke-width="3" fill="none"/>
  <path d="M 55,95 Q 75,90 95,95 T 135,95" stroke="#FAFAD2" stroke-width="3" fill="none"/>
  <path d="M 65,105 Q 85,100 105,105 T 145,105" stroke="#FAFAD2" stroke-width="3" fill="none"/>
  
  <!-- Meatballs -->
  <circle cx="80" cy="90" r="7" fill="#8B4513"/>
  <circle cx="120" cy="95" r="7" fill="#8B4513"/>
  
  <!-- Vegetables -->
  <ellipse cx="95" cy="100" rx="6" ry="8" fill="#90EE90"/>
  <ellipse cx="105" cy="90" rx="6" ry="8" fill="#90EE90"/>
  
  <text x="100" y="180" font-size="16" fill="#A11C23" text-anchor="middle" font-weight="bold">ก้วยเตี๋ยวน้ำ</text>
</svg>
